<?xml version="1.0" encoding="utf-8"?>
<svg id="master-artboard" viewBox="0 0 3470.149658203125 1378.8226318359375" version="1.1" xmlns="http://www.w3.org/2000/svg" x="0px" y="0px" style="enable-background:new 0 0 1400 980;" width="3470.149658203125px" height="1378.8226318359375px" xmlns:xlink="http://www.w3.org/1999/xlink"><defs><linearGradient id="0716a939-3e70-42e2-b2a4-62d4623bb7b7" x1="574.72" y1="713.31" x2="574.72" y2="358.2" gradientUnits="userSpaceOnUse"><stop offset="0" stop-color="gray" stop-opacity="0.25"/><stop offset="0.54" stop-color="gray" stop-opacity="0.12"/><stop offset="1" stop-color="gray" stop-opacity="0.1"/></linearGradient><linearGradient id="246fdb29-47ea-4475-84d7-0cdffd1436cc" x1="2975.38" y1="757.78" x2="2975.38" y2="205.6" gradientTransform="matrix(-1, 0, 0, 1, 3906, 0)" xlink:href="#0716a939-3e70-42e2-b2a4-62d4623bb7b7"/><radialGradient id="gradient-0" gradientUnits="objectBoundingBox" cx="0.5" cy="0.5" r="0.5" gradientTransform="matrix(-0.9218298047780991, -2.4479674100875854, 0.295232355594635, -4.434705018997192, 0.813298724591732, 3.9413363337516785)">
                <stop offset="0" style="stop-color: #384a5e"/>
                <stop offset="1" style="stop-color: #12181e"/>
              </radialGradient><style id="ee-google-fonts">@import url(https://fonts.googleapis.com/css?family=Acme:400);</style></defs><g transform="matrix(1.0276328325271606, 0, 0, 1.0276328325271606, 746.4688720703125, 1199.217529296875)"><rect id="ee-background" x="0" y="0" width="3470.149658203125" height="1378.8226318359375" style="fill: rgb(25, 55, 94); fill-opacity: 0; pointer-events: none; stroke: rgb(185, 255, 184);"/><g transform="matrix(1.8397716866869431, 0, 0, 1.8397716866869431, -1031.3570960021748, -1368.6549831177808)"><path fill="#FFFFFF" d="M 290.87654161453247 245.13442993164062 C 465.10321044921875 167.5285186767578 561.10546875 151.57286071777344 698.6375134277343 179.36854553222656 C 765.8409423828125 192.95059204101562 854.437744140625 233.45144653320312 978.3974609375 137.93753051757812 C 1083.2530140547485 57.14382790994796 1190.314257669764 143.83535791000506 1265.3228759765625 -55.11054611206055 C 1302.646240234375 -154.10357666015625 1367.4416750843557 -140.13179466381928 1383.64453125 -23.72321128845215 C 1390.7166748046875 27.086238861083984 1456.1943163984456 76.47420115110339 1472.232177734375 113.4864501953125 C 1497.025634765625 170.70490264892578 1565.5616455078125 155.80316162109375 1600.3804931640625 196.84400939941406 C 1660.3603154883733 267.54200555612715 1714.0985107421875 201.1207733154297 1802.2784423828125 235.4691162109375 C 1961.0090971176528 297.29877354250345 1951.0860595703125 304 1951.0860595703125 304 L 0 304 C 0 304 174.23624631787047 297.08961211612484 290.87654161453247 245.13442993164062 Z" style="fill: rgb(255, 255, 255); stroke: rgb(185, 255, 184); stroke-opacity: 1; stroke-width: 0;" transform="matrix(0.9999999999999999, 0, 0, 0.9999999999999999, 3.456380235043298, 542.6518986138285)"/></g><path d="M 1046.2037353515625 -200.09507751464844 L 1052.1337890625 -205.445068359375 L 1053.5537109375 -203.83506774902344 L 1049.61376953125 -200.18507385253906 L 1053.7437744140625 -196.61508178710938 L 1052.2037353515625 -194.9050750732422 L 1046.2037353515625 -200.09507751464844 ZM 1064.1611328125 -200.26507568359375 L 1058.231201171875 -194.9050750732422 L 1056.8111572265625 -196.51507568359375 L 1060.7510986328125 -200.16506958007812 L 1056.62109375 -203.7450714111328 L 1058.1611328125 -205.445068359375 L 1064.1611328125 -200.26507568359375 Z" transform="matrix(4.4511823654174805, 0, 0, 4.4511823654174805, -3297.58203125, 415.9494323730469)" style="fill: rgb(51, 51, 51); white-space: pre; color: rgb(51, 51, 51);"/></g><path d="M 1248.9140625 694.2835083007812 L 1229.61279296875 711.6546630859375 L 1129.245849609375 723.2354736328125 L 1109.9444580078125 719.375244140625 L 1109.9444580078125 719.375244140625 L 1109.9444580078125 719.375244140625 L 1109.9444580078125 719.375244140625 L 1082.922607421875 719.375244140625 L 1082.922607421875 719.375244140625 L 1082.922607421875 719.375244140625 L 1082.922607421875 719.375244140625 L 961.3242797851562 418.2745361328125 L 961.3242797851562 418.2745361328125 L 961.3242797851562 418.2745361328125 L 961.3242797851562 418.2745361328125 L 1021.158447265625 493.5497131347656 L 1021.158447265625 493.5497131347656 L 1021.158447265625 493.5497131347656 L 1021.158447265625 493.5497131347656" style="fill: rgb(255, 255, 255); fill-opacity: 0; stroke: rgb(0, 0, 0); stroke-opacity: 1; stroke-width: 0; paint-order: fill;" transform="matrix(1, 0, 0, 1, 700.8507080078125, 903.2633056640625)"/></svg>